<svg version="1.1" xmlns="http://www.w3.org/2000/svg" xmlns:xlink="http://www.w3.org/1999/xlink" width="360" height="360" viewBox="0 0 360 360"><defs><path id="f" fill="black" fill-rule="evenodd" d="M 0 10 a10,10 0 0 1 10,-10 h36 a10,10 0 0 1 10,10 v36 a10,10 0 0 1 -10,10 h-36 a10,10 0 0 1 -10,-10 Z M 8 10 a2,2 0 0 1 2,-2 h36 a2,2 0 0 1 2,2 v36 a2,2 0 0 1 -2,2 h-36 a2,2 0 0 1 -2,-2 Z M 16 18 a2,2 0 0 1 2,-2 h20 a2,2 0 0 1 2,2 v20 a2,2 0 0 1 -2,2 h-20 a2,2 0 0 1 -2,-2 Z" /><path id="s" fill="black" fill-rule="evenodd" d="M 0 9.8 C 0 3.92 3.92 0 9.8 0 L 46.2 0 C 52.08 0 56 3.92 56 9.8 L 56 46.2 C 56 52.08 52.08 56 46.2 56 L 9.8 56 C 3.92 56 0 52.08 0 46.2 Z M 11.2 14 C 11.2 12.32 12.32 11.2 14 11.2 L 42 11.2 C 43.68 11.2 44.8 12.32 44.8 14 L 44.8 42 C 44.8 43.68 43.68 44.8 42 44.8 L 14 44.8 C 12.32 44.8 11.2 43.68 11.2 42 Z M 21 22.4 C 21 21.7 21.7 21 22.4 21 L 33.6 21 C 34.3 21 35 21.7 35 22.4 L 35 33.6 C 35 34.3 34.3 35 33.6 35 L 22.4 35 C 21.7 35 21 34.3 21 33.6 Z" /></defs><rect fill="white" x="0" y="0" width="360" height="360" rx="16" ry="16" /><use xlink:href="#f" x="48" y="48" /><use xlink:href="#f" x="48" y="256" /><use xlink:href="#f" x="256" y="48" /><rect fill="black" x="120" y="48" width="8" height="8" rx="2" ry="2" /><rect fill="black" x="144" y="48" width="8" height="8" rx="2" ry="2" /><rect fill="black" x="176" y="48" width="8" height="8" rx="2" ry="2" /><path fill="black" d="M201 52a3,3 0 0 1 3,-3h16a3,3 0 0 1 3,3v5h5a3,3 0 0 1 3,3v8a3,3 0 0 1 -3,3h-5v18h5a3,3 0 0 1 3,3v29h5a3,3 0 0 1 3,3a3,3 0 0 1 -3,3h-5v5a3,3 0 0 1 -3,3a3,3 0 0 1 -3,-3v-21h-10v21a3,3 0 0 1 -3,3a3,3 0 0 1 -3,-3v-5h-18v10h13a3,3 0 0 1 3,3a3,3 0 0 1 -3,3h-16a3,3 0 0 1 -3,-3v-5h-10v5a3,3 0 0 1 -3,3a3,3 0 0 1 -3,-3v-5h-10v5a3,3 0 0 1 -3,3a3,3 0 0 1 -3,-3v-13h-5a3,3 0 0 1 -3,-3v-5h-5a3,3 0 0 1 -3,-3v-5h-21a3,3 0 0 1 -3,-3v-40a3,3 0 0 1 3,-3a3,3 0 0 1 3,3v5h5a3,3 0 0 1 3,3v13h5a3,3 0 0 1 3,3v13h10v-13a3,3 0 0 1 3,-3a3,3 0 0 1 3,3v21h5a3,3 0 0 1 3,3v5h5a3,3 0 0 1 3,3v5h10v-29a3,3 0 0 1 3,-3a3,3 0 0 1 3,3v13h5a3,3 0 0 1 3,3v5h10v-13a3,3 0 0 1 3,-3h5v-5a3,3 0 0 1 3,-3a3,3 0 0 1 3,3v5h10v-10h-5a3,3 0 0 1 -3,-3v-5h-5a3,3 0 0 1 -3,-3a3,3 0 0 1 3,-3h5v-18h-5a3,3 0 0 1 -3,-3v-5h-5a3,3 0 0 1 -3,-3zM129 95h-10v10h10v-10z" /><rect fill="black" x="232" y="48" width="8" height="8" rx="2" ry="2" /><path fill="black" d="M129 60a3,3 0 0 1 3,-3a3,3 0 0 1 3,3v5h13a3,3 0 0 1 3,3v8a3,3 0 0 1 -3,3h-8a3,3 0 0 1 -3,-3v-5h-5a3,3 0 0 1 -3,-3v-8z" /><path fill="black" d="M169 60a3,3 0 0 1 3,-3a3,3 0 0 1 3,3v5h5a3,3 0 0 1 3,3a3,3 0 0 1 -3,3h-5v10h5a3,3 0 0 1 3,3a3,3 0 0 1 -3,3h-13v21a3,3 0 0 1 -3,3a3,3 0 0 1 -3,-3v-24a3,3 0 0 1 3,-3h5v-10h-5a3,3 0 0 1 -3,-3a3,3 0 0 1 3,-3h5v-5z" /><rect fill="black" x="192" y="56" width="8" height="8" rx="2" ry="2" /><rect fill="black" x="240" y="56" width="8" height="8" rx="2" ry="2" /><rect fill="black" x="192" y="72" width="8" height="8" rx="2" ry="2" /><path fill="black" d="M233 76a3,3 0 0 1 3,-3h8a3,3 0 0 1 3,3a3,3 0 0 1 -3,3h-5v5a3,3 0 0 1 -3,3a3,3 0 0 1 -3,-3v-8z" /><rect fill="black" x="200" y="88" width="8" height="8" rx="2" ry="2" /><path fill="black" d="M241 92a3,3 0 0 1 3,-3a3,3 0 0 1 3,3v8a3,3 0 0 1 -3,3a3,3 0 0 1 -3,-3v-8z" /><rect fill="black" x="192" y="96" width="8" height="8" rx="2" ry="2" /><path fill="black" d="M49 116a3,3 0 0 1 3,-3a3,3 0 0 1 3,3v24a3,3 0 0 1 -3,3a3,3 0 0 1 -3,-3v-24z" /><path fill="black" d="M65 116a3,3 0 0 1 3,-3h32a3,3 0 0 1 3,3a3,3 0 0 1 -3,3h-13v10h21a3,3 0 0 1 3,3v13h5a3,3 0 0 1 3,3a3,3 0 0 1 -3,3h-21v10h13a3,3 0 0 1 3,3v5h5a3,3 0 0 1 3,3v8a3,3 0 0 1 -3,3h-24a3,3 0 0 1 -3,-3a3,3 0 0 1 3,-3h13v-10h-18v5a3,3 0 0 1 -3,3a3,3 0 0 1 -3,-3v-8a3,3 0 0 1 3,-3h5v-10h-13a3,3 0 0 1 -3,-3v-5h-5a3,3 0 0 1 -3,-3v-8a3,3 0 0 1 3,-3h13v-10h-13a3,3 0 0 1 -3,-3zM105 135h-10v10h10v-10zM89 135h-10v10h10v-10z" /><rect fill="black" x="240" y="112" width="8" height="8" rx="2" ry="2" /><path fill="black" d="M257 116a3,3 0 0 1 3,-3h32a3,3 0 0 1 3,3v5h13a3,3 0 0 1 3,3a3,3 0 0 1 -3,3h-5v10h5a3,3 0 0 1 3,3v16a3,3 0 0 1 -3,3h-5v5a3,3 0 0 1 -3,3h-5v5a3,3 0 0 1 -3,3h-5v10h5a3,3 0 0 1 3,3v5h5a3,3 0 0 1 3,3v5h5a3,3 0 0 1 3,3a3,3 0 0 1 -3,3h-21v5a3,3 0 0 1 -3,3h-8a3,3 0 0 1 -3,-3v-5h-13a3,3 0 0 1 -3,-3a3,3 0 0 1 3,-3h5v-10h-13a3,3 0 0 1 -3,-3v-5h-10v5a3,3 0 0 1 -3,3a3,3 0 0 1 -3,-3v-5h-5a3,3 0 0 1 -3,-3v-5h-5a3,3 0 0 1 -3,-3a3,3 0 0 1 3,-3h16a3,3 0 0 1 3,3v5h10v-26h-5a3,3 0 0 1 -3,-3v-5h-5a3,3 0 0 1 -3,-3a3,3 0 0 1 3,-3h5v-5a3,3 0 0 1 3,-3a3,3 0 0 1 3,3v5h5a3,3 0 0 1 3,3v13h5a3,3 0 0 1 3,3v16a3,3 0 0 1 -3,3h-5v10h10v-5a3,3 0 0 1 3,-3h5v-5a3,3 0 0 1 3,-3h5v-18h-5a3,3 0 0 1 -3,-3v-16a3,3 0 0 1 3,-3a3,3 0 0 1 3,3v5h10v-10h-5a3,3 0 0 1 -3,-3v-5h-10v5a3,3 0 0 1 -3,3h-8a3,3 0 0 1 -3,-3v-8zM297 143h-10v10h10v-10zM281 183h-10v10h5a3,3 0 0 1 3,3v5h10v-10h-5a3,3 0 0 1 -3,-3v-5z" /><rect fill="black" x="112" y="120" width="8" height="8" rx="2" ry="2" /><path fill="black" d="M129 132a3,3 0 0 1 3,-3h8a3,3 0 0 1 3,3v8a3,3 0 0 1 -3,3a3,3 0 0 1 -3,-3v-5h-5a3,3 0 0 1 -3,-3z" /><rect fill="black" x="120" y="136" width="8" height="8" rx="2" ry="2" /><rect fill="black" x="56" y="144" width="8" height="8" rx="2" ry="2" /><rect fill="black" x="144" y="144" width="8" height="8" rx="2" ry="2" /><path fill="black" d="M209 148a3,3 0 0 1 3,-3h16a3,3 0 0 1 3,3a3,3 0 0 1 -3,3h-5v5a3,3 0 0 1 -3,3a3,3 0 0 1 -3,-3v-5h-5a3,3 0 0 1 -3,-3z" /><rect fill="black" x="64" y="152" width="8" height="8" rx="2" ry="2" /><path fill="black" d="M121 156a3,3 0 0 1 3,-3a3,3 0 0 1 3,3v8a3,3 0 0 1 -3,3a3,3 0 0 1 -3,-3v-8z" /><path fill="black" d="M137 156a3,3 0 0 1 3,-3a3,3 0 0 1 3,3v8a3,3 0 0 1 -3,3a3,3 0 0 1 -3,-3v-8z" /><rect fill="black" x="232" y="152" width="8" height="8" rx="2" ry="2" /><path fill="black" d="M57 164a3,3 0 0 1 3,-3a3,3 0 0 1 3,3v5h5a3,3 0 0 1 3,3a3,3 0 0 1 -3,3h-5v13a3,3 0 0 1 -3,3h-8a3,3 0 0 1 -3,-3v-16a3,3 0 0 1 3,-3h5v-5z" /><path fill="black" d="M129 180a3,3 0 0 1 3,-3h8a3,3 0 0 1 3,3a3,3 0 0 1 -3,3h-8a3,3 0 0 1 -3,-3z" /><path fill="black" d="M305 180a3,3 0 0 1 3,-3a3,3 0 0 1 3,3v8a3,3 0 0 1 -3,3a3,3 0 0 1 -3,-3v-8z" /><rect fill="black" x="80" y="184" width="8" height="8" rx="2" ry="2" /><path fill="black" d="M217 188a3,3 0 0 1 3,-3a3,3 0 0 1 3,3v13h5a3,3 0 0 1 3,3a3,3 0 0 1 -3,3h-5v5a3,3 0 0 1 -3,3a3,3 0 0 1 -3,-3v-24z" /><path fill="black" d="M65 196a3,3 0 0 1 3,-3a3,3 0 0 1 3,3v16a3,3 0 0 1 -3,3h-13v29a3,3 0 0 1 -3,3a3,3 0 0 1 -3,-3v-40a3,3 0 0 1 3,-3h13v-5z" /><path fill="black" d="M89 196a3,3 0 0 1 3,-3h8a3,3 0 0 1 3,3a3,3 0 0 1 -3,3h-8a3,3 0 0 1 -3,-3z" /><path fill="black" d="M121 196a3,3 0 0 1 3,-3a3,3 0 0 1 3,3v13h5a3,3 0 0 1 3,3v5h13a3,3 0 0 1 3,3v5h5a3,3 0 0 1 3,3a3,3 0 0 1 -3,3h-8a3,3 0 0 1 -3,-3v-5h-13a3,3 0 0 1 -3,-3v-5h-5a3,3 0 0 1 -3,-3v-16z" /><path fill="black" d="M241 204a3,3 0 0 1 3,-3a3,3 0 0 1 3,3v8a3,3 0 0 1 -3,3a3,3 0 0 1 -3,-3v-8z" /><path fill="black" d="M89 212a3,3 0 0 1 3,-3h8a3,3 0 0 1 3,3a3,3 0 0 1 -3,3h-8a3,3 0 0 1 -3,-3z" /><path fill="black" d="M73 220a3,3 0 0 1 3,-3h8a3,3 0 0 1 3,3v16a3,3 0 0 1 -3,3h-8a3,3 0 0 1 -3,-3a3,3 0 0 1 3,-3h5v-10h-5a3,3 0 0 1 -3,-3z" /><path fill="black" d="M161 220a3,3 0 0 1 3,-3h16a3,3 0 0 1 3,3a3,3 0 0 1 -3,3h-16a3,3 0 0 1 -3,-3z" /><rect fill="black" x="208" y="216" width="8" height="8" rx="2" ry="2" /><path fill="black" d="M225 220a3,3 0 0 1 3,-3h8a3,3 0 0 1 3,3a3,3 0 0 1 -3,3h-5v5a3,3 0 0 1 -3,3h-5v5a3,3 0 0 1 -3,3h-13v13a3,3 0 0 1 -3,3h-13v10h5a3,3 0 0 1 3,3a3,3 0 0 1 -3,3h-13v5a3,3 0 0 1 -3,3a3,3 0 0 1 -3,-3v-8a3,3 0 0 1 3,-3h5v-10h-5a3,3 0 0 1 -3,-3v-16a3,3 0 0 1 3,-3a3,3 0 0 1 3,3v5h5a3,3 0 0 1 3,3v5h10v-10h-5a3,3 0 0 1 -3,-3v-5h-5a3,3 0 0 1 -3,-3a3,3 0 0 1 3,-3h16a3,3 0 0 1 3,3v5h10v-5a3,3 0 0 1 3,-3h5v-5z" /><path fill="black" d="M257 220a3,3 0 0 1 3,-3h8a3,3 0 0 1 3,3a3,3 0 0 1 -3,3h-8a3,3 0 0 1 -3,-3z" /><rect fill="black" x="288" y="216" width="8" height="8" rx="2" ry="2" /><rect fill="black" x="304" y="216" width="8" height="8" rx="2" ry="2" /><rect fill="black" x="64" y="224" width="8" height="8" rx="2" ry="2" /><rect fill="black" x="96" y="224" width="8" height="8" rx="2" ry="2" /><path fill="black" d="M297 228a3,3 0 0 1 3,-3a3,3 0 0 1 3,3v13h5a3,3 0 0 1 3,3v8a3,3 0 0 1 -3,3h-5v10h5a3,3 0 0 1 3,3v16a3,3 0 0 1 -3,3a3,3 0 0 1 -3,-3v-5h-5a3,3 0 0 1 -3,-3v-5h-10v5a3,3 0 0 1 -3,3h-5v5a3,3 0 0 1 -3,3a3,3 0 0 1 -3,-3v-5h-18v10h13a3,3 0 0 1 3,3a3,3 0 0 1 -3,3h-5v5a3,3 0 0 1 -3,3h-5v5a3,3 0 0 1 -3,3h-24a3,3 0 0 1 -3,-3v-5h-5a3,3 0 0 1 -3,-3a3,3 0 0 1 3,-3h5v-5a3,3 0 0 1 3,-3h13v-18h-5a3,3 0 0 1 -3,-3v-5h-5a3,3 0 0 1 -3,-3a3,3 0 0 1 3,-3h13v-18h-5a3,3 0 0 1 -3,-3a3,3 0 0 1 3,-3h24a3,3 0 0 1 3,3v5h13a3,3 0 0 1 3,3v21h10v-13a3,3 0 0 1 3,-3h5v-10h-13a3,3 0 0 1 -3,-3a3,3 0 0 1 3,-3h13v-5zM273 247h-26v26h26v-26zM249 295h-18v10h18v-10z" /><path fill="black" d="M105 236a3,3 0 0 1 3,-3h16a3,3 0 0 1 3,3a3,3 0 0 1 -3,3h-16a3,3 0 0 1 -3,-3z" /><path fill="black" d="M137 236a3,3 0 0 1 3,-3a3,3 0 0 1 3,3v5h13a3,3 0 0 1 3,3a3,3 0 0 1 -3,3h-5v5a3,3 0 0 1 -3,3a3,3 0 0 1 -3,-3v-5h-13a3,3 0 0 1 -3,-3a3,3 0 0 1 3,-3h5v-5z" /><path fill="black" d="M89 244a3,3 0 0 1 3,-3h8a3,3 0 0 1 3,3a3,3 0 0 1 -3,3h-8a3,3 0 0 1 -3,-3z" /><rect fill="black" x="224" y="240" width="8" height="8" rx="2" ry="2" /><rect fill="black" x="112" y="248" width="8" height="8" rx="2" ry="2" /><rect fill="black" x="168" y="256" width="8" height="8" rx="2" ry="2" /><rect fill="black" x="256" y="256" width="8" height="8" rx="2" ry="2" /><path fill="black" d="M113 268a3,3 0 0 1 3,-3h8a3,3 0 0 1 3,3a3,3 0 0 1 -3,3h-5v10h10v-5a3,3 0 0 1 3,-3h16a3,3 0 0 1 3,3a3,3 0 0 1 -3,3h-5v10h10v-5a3,3 0 0 1 3,-3h5v-13a3,3 0 0 1 3,-3a3,3 0 0 1 3,3v13h5a3,3 0 0 1 3,3v5h5a3,3 0 0 1 3,3a3,3 0 0 1 -3,3h-5v13a3,3 0 0 1 -3,3a3,3 0 0 1 -3,-3v-5h-5a3,3 0 0 1 -3,-3v-5h-10v10h5a3,3 0 0 1 3,3a3,3 0 0 1 -3,3h-8a3,3 0 0 1 -3,-3v-5h-5a3,3 0 0 1 -3,-3v-5h-21a3,3 0 0 1 -3,-3v-24z" /><path fill="black" d="M209 268a3,3 0 0 1 3,-3a3,3 0 0 1 3,3v5h13a3,3 0 0 1 3,3a3,3 0 0 1 -3,3h-16a3,3 0 0 1 -3,-3v-8z" /><rect fill="black" x="192" y="280" width="8" height="8" rx="2" ry="2" /><rect fill="black" x="288" y="280" width="8" height="8" rx="2" ry="2" /><rect fill="black" x="208" y="288" width="8" height="8" rx="2" ry="2" /><path fill="black" d="M281 292a3,3 0 0 1 3,-3a3,3 0 0 1 3,3v5h5a3,3 0 0 1 3,3a3,3 0 0 1 -3,3h-16a3,3 0 0 1 -3,-3a3,3 0 0 1 3,-3h5v-5z" /><rect fill="black" x="112" y="304" width="8" height="8" rx="2" ry="2" /><rect fill="black" x="128" y="304" width="8" height="8" rx="2" ry="2" /><path fill="black" d="M185 308a3,3 0 0 1 3,-3h8a3,3 0 0 1 3,3a3,3 0 0 1 -3,3h-8a3,3 0 0 1 -3,-3z" /><rect fill="black" x="208" y="304" width="8" height="8" rx="2" ry="2" /><rect fill="black" x="264" y="304" width="8" height="8" rx="2" ry="2" /><rect fill="black" x="296" y="304" width="8" height="8" rx="2" ry="2" /><use xlink:href="#s" x="152" y="152" /></svg>